<svg width="20" height="20" viewBox="0 0 20 20" fill="none" xmlns="http://www.w3.org/2000/svg">
<path d="M18.3337 12.5001V7.50008C18.3337 3.33341 16.667 1.66675 12.5003 1.66675H7.50033C3.33366 1.66675 1.66699 3.33341 1.66699 7.50008V12.5001C1.66699 16.6667 3.33366 18.3334 7.50033 18.3334H12.5003C16.667 18.3334 18.3337 16.6667 18.3337 12.5001Z" stroke="#0F172A" stroke-width="1.5" stroke-linecap="round" stroke-linejoin="round"/>
<path d="M8.01666 14.4166C8.99237 14.4166 9.78333 13.6257 9.78333 12.65C9.78333 11.6743 8.99237 10.8833 8.01666 10.8833C7.04096 10.8833 6.25 11.6743 6.25 12.65C6.25 13.6257 7.04096 14.4166 8.01666 14.4166Z" stroke="#0F172A" stroke-width="1.5" stroke-linecap="round" stroke-linejoin="round"/>
<path d="M9.7832 12.6501V6.4751" stroke="#0F172A" stroke-width="1.5" stroke-linecap="round" stroke-linejoin="round"/>
<path d="M10.9415 5.64175L12.8915 6.29172C13.3665 6.45005 13.7499 6.98338 13.7499 7.48338V8.00004C13.7499 8.67504 13.2249 9.05004 12.5915 8.83338L10.6416 8.1834C10.1666 8.02507 9.7832 7.49174 9.7832 6.99174V6.47508C9.7832 5.80841 10.2999 5.42508 10.9415 5.64175Z" stroke="#0F172A" stroke-width="1.5" stroke-linecap="round" stroke-linejoin="round"/>
</svg>
