<svg width="20" height="20" viewBox="0 0 20 20" fill="none" xmlns="http://www.w3.org/2000/svg">
<path d="M16.6663 6.87508V15.0001C16.6663 17.5001 15.1747 18.3334 13.333 18.3334H6.66634C4.82467 18.3334 3.33301 17.5001 3.33301 15.0001V6.87508C3.33301 4.16675 4.82467 3.54175 6.66634 3.54175C6.66634 4.05841 6.87465 4.52508 7.21632 4.86675C7.55799 5.20841 8.02467 5.41675 8.54134 5.41675H11.458C12.4913 5.41675 13.333 4.57508 13.333 3.54175C15.1747 3.54175 16.6663 4.16675 16.6663 6.87508Z" stroke="#0F172A" stroke-width="1.5" stroke-linecap="round" stroke-linejoin="round"/>
<path d="M13.3337 3.54175C13.3337 4.57508 12.492 5.41675 11.4587 5.41675H8.54199C8.02533 5.41675 7.55864 5.20841 7.21697 4.86674C6.8753 4.52508 6.66699 4.05841 6.66699 3.54175C6.66699 2.50841 7.50866 1.66675 8.54199 1.66675H11.4587C11.9753 1.66675 12.442 1.87508 12.7837 2.21675C13.1253 2.55842 13.3337 3.02508 13.3337 3.54175Z" stroke="#0F172A" stroke-width="1.5" stroke-linecap="round" stroke-linejoin="round"/>
<path d="M6.66699 10.8333H10.0003" stroke="#0F172A" stroke-width="1.5" stroke-linecap="round" stroke-linejoin="round"/>
<path d="M6.66699 14.1667H13.3337" stroke="#0F172A" stroke-width="1.5" stroke-linecap="round" stroke-linejoin="round"/>
</svg>
