<svg width="26" height="24" viewBox="0 0 26 24" fill="none" xmlns="http://www.w3.org/2000/svg">
<path d="M22.7179 5.23C20.9929 5.07 19.2679 4.95 17.5322 4.86V4.85L17.2965 3.55C17.1358 2.63 16.9001 1.25 14.3929 1.25H11.5858C9.08935 1.25 8.85363 2.57 8.68221 3.54L8.45721 4.82C7.46078 4.88 6.46435 4.94 5.46792 5.03L3.28221 5.23C2.83221 5.27 2.51078 5.64 2.55364 6.05C2.59649 6.46 2.98221 6.76 3.43221 6.72L5.61792 6.52C11.2322 6 16.8893 6.2 22.5679 6.73C22.6001 6.73 22.6215 6.73 22.6536 6.73C23.0608 6.73 23.4144 6.44 23.4572 6.05C23.4893 5.64 23.1679 5.27 22.7179 5.23Z" fill="#FF5C5C"/>
<path d="M20.7465 8.14C20.4894 7.89 20.1358 7.75 19.7715 7.75H6.22865C5.86437 7.75 5.50008 7.89 5.25365 8.14C5.00722 8.39 4.86794 8.73 4.88937 9.08L5.55365 19.34C5.67151 20.86 5.82151 22.76 9.56079 22.76H16.4394C20.1787 22.76 20.3287 20.87 20.4465 19.34L21.1108 9.09C21.1322 8.73 20.9929 8.39 20.7465 8.14ZM14.7787 17.75H11.2108C10.7715 17.75 10.4072 17.41 10.4072 17C10.4072 16.59 10.7715 16.25 11.2108 16.25H14.7787C15.2179 16.25 15.5822 16.59 15.5822 17C15.5822 17.41 15.2179 17.75 14.7787 17.75ZM15.6787 13.75H10.3215C9.88222 13.75 9.51794 13.41 9.51794 13C9.51794 12.59 9.88222 12.25 10.3215 12.25H15.6787C16.1179 12.25 16.4822 12.59 16.4822 13C16.4822 13.41 16.1179 13.75 15.6787 13.75Z" fill="#FF5C5C"/>
</svg>
