<svg width="24" height="24" viewBox="0 0 24 24" fill="none" xmlns="http://www.w3.org/2000/svg">
<path d="M21.9999 7.3335H1.99992C1.82311 7.3335 1.65354 7.40373 1.52851 7.52876C1.40349 7.65378 1.33325 7.82335 1.33325 8.00016C1.33325 8.17697 1.40349 8.34654 1.52851 8.47157C1.65354 8.59659 1.82311 8.66683 1.99992 8.66683H21.9999C22.1767 8.66683 22.3463 8.59659 22.4713 8.47157C22.5963 8.34654 22.6666 8.17697 22.6666 8.00016C22.6666 7.82335 22.5963 7.65378 22.4713 7.52876C22.3463 7.40373 22.1767 7.3335 21.9999 7.3335Z" fill="#595F67"/>
<path d="M18.6667 11.3335H5.33341C5.1566 11.3335 4.98703 11.4037 4.86201 11.5288C4.73699 11.6538 4.66675 11.8234 4.66675 12.0002C4.66675 12.177 4.73699 12.3465 4.86201 12.4716C4.98703 12.5966 5.1566 12.6668 5.33341 12.6668H18.6667C18.8436 12.6668 19.0131 12.5966 19.1382 12.4716C19.2632 12.3465 19.3334 12.177 19.3334 12.0002C19.3334 11.8234 19.2632 11.6538 19.1382 11.5288C19.0131 11.4037 18.8436 11.3335 18.6667 11.3335Z" fill="#595F67"/>
<path d="M15.3333 15.3335H8.66667C8.48986 15.3335 8.32029 15.4037 8.19526 15.5288C8.07024 15.6538 8 15.8234 8 16.0002C8 16.177 8.07024 16.3465 8.19526 16.4716C8.32029 16.5966 8.48986 16.6668 8.66667 16.6668H15.3333C15.5101 16.6668 15.6797 16.5966 15.8047 16.4716C15.9298 16.3465 16 16.177 16 16.0002C16 15.8234 15.9298 15.6538 15.8047 15.5288C15.6797 15.4037 15.5101 15.3335 15.3333 15.3335Z" fill="#595F67"/>
</svg>
