<svg width="28" height="28" viewBox="0 0 28 28" fill="none" xmlns="http://www.w3.org/2000/svg">
<path d="M11.3149 6.92004V2.83337H16.6849V6.92004H11.3149Z" fill="white" stroke="white"/>
<path d="M24.888 6.92004H19.4351V2.84789C20.9266 2.93068 22.1386 3.36351 23.0514 4.07277C23.924 4.75084 24.5536 5.70501 24.888 6.92004Z" fill="white" stroke="white"/>
<path d="M17.0966 19.3098L17.0966 19.3098L17.1015 19.3069C18.0719 18.7324 18.735 17.9071 18.735 16.8817C18.735 15.867 18.096 15.0016 17.0956 14.4297C17.0953 14.4296 17.095 14.4294 17.0948 14.4293L14.6723 13.0317C14.6719 13.0315 14.6715 13.0312 14.6711 13.031C13.6764 12.45 12.614 12.3164 11.7316 12.8321C10.8487 13.336 10.4317 14.3338 10.4317 15.47V18.27C10.4317 19.4075 10.8496 20.4062 11.7344 20.9096L11.7374 20.9113C12.106 21.1177 12.5055 21.22 12.9384 21.22C13.513 21.22 14.0995 21.0339 14.667 20.7114L14.6671 20.7114L14.6699 20.7098L17.0966 19.3098ZM2.83337 18.8884V9.67004H25.1667V18.8884C25.1667 20.9123 24.5654 22.4676 23.5165 23.5165C22.4676 24.5654 20.9123 25.1667 18.8884 25.1667H9.11171C7.08781 25.1667 5.53247 24.5654 4.48359 23.5165C3.43472 22.4676 2.83337 20.9123 2.83337 18.8884Z" fill="white" stroke="white"/>
<path d="M8.56498 6.92004H3.112C3.4464 5.70501 4.07604 4.75084 4.94865 4.07277C5.86141 3.36351 7.07341 2.93068 8.56498 2.84789V6.92004Z" fill="white" stroke="white"/>
</svg>
